<svg xmlns="http://www.w3.org/2000/svg" xmlns:xlink="http://www.w3.org/1999/xlink" viewBox="0 0 2086.67 450"><defs><clipPath id="a"><rect x="406.74" y="100.82" width="58.99" height="349.71" style="fill:none"/></clipPath><clipPath id="c"><rect x="487.74" y="100.82" width="58.99" height="349.71" style="fill:none"/></clipPath><clipPath id="e"><rect x="568.74" y="100.82" width="58.99" height="349.71" style="fill:none"/></clipPath><clipPath id="g"><rect x="649.74" y="100.82" width="58.99" height="349.71" style="fill:none"/></clipPath><clipPath id="i"><rect x="730.74" y="100.82" width="58.99" height="349.71" style="fill:none"/></clipPath><clipPath id="k"><rect x="811.74" y="100.82" width="58.99" height="349.71" style="fill:none"/></clipPath><clipPath id="m"><rect x="892.74" y="100.82" width="58.99" height="349.71" style="fill:none"/></clipPath><clipPath id="o"><rect x="973.74" y="100.82" width="58.99" height="349.71" style="fill:none"/></clipPath><clipPath id="q"><rect x="1054.74" y="100.82" width="58.99" height="349.71" style="fill:none"/></clipPath><clipPath id="s"><rect x="1135.74" y="100.82" width="58.99" height="349.71" style="fill:none"/></clipPath><clipPath id="u"><rect x="1216.74" y="100.82" width="58.99" height="349.71" style="fill:none"/></clipPath><clipPath id="w"><rect x="1297.74" y="100.82" width="58.99" height="349.71" style="fill:none"/></clipPath><clipPath id="y"><rect x="1378.74" y="100.82" width="58.99" height="349.71" style="fill:none"/></clipPath><clipPath id="aa"><rect x="1459.74" y="100.82" width="58.99" height="349.71" style="fill:none"/></clipPath><clipPath id="ac"><rect x="1540.74" y="100.82" width="58.99" height="349.71" style="fill:none"/></clipPath><clipPath id="ae"><rect x="1621.74" y="100.82" width="58.99" height="349.71" style="fill:none"/></clipPath><clipPath id="ag"><rect x="1702.74" y="100.82" width="58.99" height="349.71" style="fill:none"/></clipPath><clipPath id="ai"><rect x="1783.74" y="100.82" width="58.99" height="349.71" style="fill:none"/></clipPath><clipPath id="ak"><rect x="1864.74" y="100.82" width="58.99" height="349.71" style="fill:none"/></clipPath><clipPath id="am"><rect x="1945.74" y="100.82" width="58.99" height="349.71" style="fill:none"/></clipPath><clipPath id="ao"><rect x="2026.74" y="100.82" width="58.99" height="349.71" style="fill:none"/></clipPath><clipPath id="aq"><rect x="325.74" y="100.82" width="58.99" height="349.71" style="fill:none"/></clipPath><clipPath id="as"><rect x="244.74" y="100.82" width="58.99" height="349.71" style="fill:none"/></clipPath><clipPath id="au"><rect x="163.74" y="100.82" width="58.99" height="349.71" style="fill:none"/></clipPath><clipPath id="aw"><rect x="82.74" y="100.82" width="58.99" height="349.71" style="fill:none"/></clipPath><clipPath id="ay"><rect x="1.74" y="100.82" width="58.99" height="349.71" style="fill:none"/></clipPath></defs><title>cubes-stacked</title><g style="clip-path:url(#a)"><g style="clip-path:url(#a)"><path d="M456.45,362H416A5.05,5.05,0,0,1,411,357V316.54a5.06,5.06,0,0,1,5.06-5.06h40.44a5.06,5.06,0,0,1,5.06,5.06V357a5.05,5.05,0,0,1-5.06,5.05" style="fill:#0069ff"/><path d="M453.08,286.2h-33.7a4.21,4.21,0,0,1-4.22-4.21V248.28a4.22,4.22,0,0,1,4.22-4.21h33.7a4.22,4.22,0,0,1,4.22,4.21V282a4.21,4.21,0,0,1-4.22,4.21" style="fill:#0069ff"/><path d="M449.71,223h-27a3.37,3.37,0,0,1-3.37-3.37v-27a3.37,3.37,0,0,1,3.37-3.37h27a3.37,3.37,0,0,1,3.37,3.37v27a3.37,3.37,0,0,1-3.37,3.37" style="fill:#0069ff"/><path d="M446.34,172.44H426.12a2.53,2.53,0,0,1-2.53-2.53V149.69a2.53,2.53,0,0,1,2.53-2.53h20.22a2.53,2.53,0,0,1,2.53,2.53v20.22a2.53,2.53,0,0,1-2.53,2.53" style="fill:#0069ff"/><path d="M443,134.52H429.49a1.69,1.69,0,0,1-1.69-1.68V119.35a1.69,1.69,0,0,1,1.69-1.68H443a1.69,1.69,0,0,1,1.69,1.68v13.49a1.69,1.69,0,0,1-1.69,1.68" style="fill:#0069ff"/><path d="M439.6,109.24h-6.74a.83.83,0,0,1-.84-.84v-6.74a.83.83,0,0,1,.84-.84h6.74a.83.83,0,0,1,.84.84v6.74a.83.83,0,0,1-.84.84" style="fill:#0069ff"/><path d="M459.83,450.52H412.64a5.9,5.9,0,0,1-5.9-5.9V397.43a5.9,5.9,0,0,1,5.9-5.89h47.19a5.89,5.89,0,0,1,5.89,5.89v47.19a5.9,5.9,0,0,1-5.89,5.9" style="fill:#0069ff"/></g></g><g style="clip-path:url(#c)"><g style="clip-path:url(#c)"><path d="M537.45,362H497A5.05,5.05,0,0,1,492,357V316.54a5.06,5.06,0,0,1,5.06-5.06h40.44a5.06,5.06,0,0,1,5.06,5.06V357a5.05,5.05,0,0,1-5.06,5.05" style="fill:#0069ff"/><path d="M534.08,286.2h-33.7a4.21,4.21,0,0,1-4.22-4.21V248.28a4.22,4.22,0,0,1,4.22-4.21h33.7a4.22,4.22,0,0,1,4.22,4.21V282a4.21,4.21,0,0,1-4.22,4.21" style="fill:#0069ff"/><path d="M530.71,223h-27a3.37,3.37,0,0,1-3.37-3.37v-27a3.37,3.37,0,0,1,3.37-3.37h27a3.37,3.37,0,0,1,3.37,3.37v27a3.37,3.37,0,0,1-3.37,3.37" style="fill:#0069ff"/><path d="M527.34,172.44H507.12a2.53,2.53,0,0,1-2.53-2.53V149.69a2.53,2.53,0,0,1,2.53-2.53h20.22a2.53,2.53,0,0,1,2.53,2.53v20.22a2.53,2.53,0,0,1-2.53,2.53" style="fill:#0069ff"/><path d="M524,134.52H510.49a1.69,1.69,0,0,1-1.69-1.68V119.35a1.69,1.69,0,0,1,1.69-1.68H524a1.69,1.69,0,0,1,1.69,1.68v13.49a1.69,1.69,0,0,1-1.69,1.68" style="fill:#0069ff"/><path d="M520.6,109.24h-6.74a.83.83,0,0,1-.84-.84v-6.74a.83.83,0,0,1,.84-.84h6.74a.83.83,0,0,1,.84.84v6.74a.83.83,0,0,1-.84.84" style="fill:#0069ff"/><path d="M540.83,450.52H493.64a5.9,5.9,0,0,1-5.9-5.9V397.43a5.9,5.9,0,0,1,5.9-5.89h47.19a5.89,5.89,0,0,1,5.89,5.89v47.19a5.9,5.9,0,0,1-5.89,5.9" style="fill:#0069ff"/></g></g><g style="clip-path:url(#e)"><g style="clip-path:url(#e)"><path d="M618.45,362H578A5.05,5.05,0,0,1,573,357V316.54a5.06,5.06,0,0,1,5.06-5.06h40.44a5.06,5.06,0,0,1,5.06,5.06V357a5.05,5.05,0,0,1-5.06,5.05" style="fill:#0069ff"/><path d="M615.08,286.2h-33.7a4.21,4.21,0,0,1-4.22-4.21V248.28a4.22,4.22,0,0,1,4.22-4.21h33.7a4.22,4.22,0,0,1,4.22,4.21V282a4.21,4.21,0,0,1-4.22,4.21" style="fill:#0069ff"/><path d="M611.71,223h-27a3.37,3.37,0,0,1-3.37-3.37v-27a3.37,3.37,0,0,1,3.37-3.37h27a3.37,3.37,0,0,1,3.37,3.37v27a3.37,3.37,0,0,1-3.37,3.37" style="fill:#0069ff"/><path d="M608.34,172.44H588.12a2.53,2.53,0,0,1-2.53-2.53V149.69a2.53,2.53,0,0,1,2.53-2.53h20.22a2.53,2.53,0,0,1,2.53,2.53v20.22a2.53,2.53,0,0,1-2.53,2.53" style="fill:#0069ff"/><path d="M605,134.52H591.49a1.69,1.69,0,0,1-1.69-1.68V119.35a1.69,1.69,0,0,1,1.69-1.68H605a1.69,1.69,0,0,1,1.69,1.68v13.49a1.69,1.69,0,0,1-1.69,1.68" style="fill:#0069ff"/><path d="M601.6,109.24h-6.74a.83.83,0,0,1-.84-.84v-6.74a.83.83,0,0,1,.84-.84h6.74a.83.83,0,0,1,.84.84v6.74a.83.83,0,0,1-.84.84" style="fill:#0069ff"/><path d="M621.83,450.52H574.64a5.9,5.9,0,0,1-5.9-5.9V397.43a5.9,5.9,0,0,1,5.9-5.89h47.19a5.89,5.89,0,0,1,5.89,5.89v47.19a5.9,5.9,0,0,1-5.89,5.9" style="fill:#0069ff"/></g></g><g style="clip-path:url(#g)"><g style="clip-path:url(#g)"><path d="M699.45,362H659A5.05,5.05,0,0,1,654,357V316.54a5.06,5.06,0,0,1,5.06-5.06h40.44a5.06,5.06,0,0,1,5.06,5.06V357a5.05,5.05,0,0,1-5.06,5.05" style="fill:#0069ff"/><path d="M696.08,286.2h-33.7a4.21,4.21,0,0,1-4.22-4.21V248.28a4.22,4.22,0,0,1,4.22-4.21h33.7a4.22,4.22,0,0,1,4.22,4.21V282a4.21,4.21,0,0,1-4.22,4.21" style="fill:#0069ff"/><path d="M692.71,223h-27a3.37,3.37,0,0,1-3.37-3.37v-27a3.37,3.37,0,0,1,3.37-3.37h27a3.37,3.37,0,0,1,3.37,3.37v27a3.37,3.37,0,0,1-3.37,3.37" style="fill:#0069ff"/><path d="M689.34,172.44H669.12a2.53,2.53,0,0,1-2.53-2.53V149.69a2.53,2.53,0,0,1,2.53-2.53h20.22a2.53,2.53,0,0,1,2.53,2.53v20.22a2.53,2.53,0,0,1-2.53,2.53" style="fill:#0069ff"/><path d="M686,134.52H672.49a1.69,1.69,0,0,1-1.69-1.68V119.35a1.69,1.69,0,0,1,1.69-1.68H686a1.69,1.69,0,0,1,1.69,1.68v13.49a1.69,1.69,0,0,1-1.69,1.68" style="fill:#0069ff"/><path d="M682.6,109.24h-6.74a.83.83,0,0,1-.84-.84v-6.74a.83.83,0,0,1,.84-.84h6.74a.83.83,0,0,1,.84.84v6.74a.83.83,0,0,1-.84.84" style="fill:#0069ff"/><path d="M702.83,450.52H655.64a5.9,5.9,0,0,1-5.9-5.9V397.43a5.9,5.9,0,0,1,5.9-5.89h47.19a5.89,5.89,0,0,1,5.89,5.89v47.19a5.9,5.9,0,0,1-5.89,5.9" style="fill:#0069ff"/></g></g><g style="clip-path:url(#i)"><g style="clip-path:url(#i)"><path d="M780.45,362H740A5.05,5.05,0,0,1,735,357V316.54a5.06,5.06,0,0,1,5.06-5.06h40.44a5.06,5.06,0,0,1,5.06,5.06V357a5.05,5.05,0,0,1-5.06,5.05" style="fill:#0069ff"/><path d="M777.08,286.2h-33.7a4.21,4.21,0,0,1-4.22-4.21V248.28a4.22,4.22,0,0,1,4.22-4.21h33.7a4.22,4.22,0,0,1,4.22,4.21V282a4.21,4.21,0,0,1-4.22,4.21" style="fill:#0069ff"/><path d="M773.71,223h-27a3.37,3.37,0,0,1-3.37-3.37v-27a3.37,3.37,0,0,1,3.37-3.37h27a3.37,3.37,0,0,1,3.37,3.37v27a3.37,3.37,0,0,1-3.37,3.37" style="fill:#0069ff"/><path d="M770.34,172.44H750.12a2.53,2.53,0,0,1-2.53-2.53V149.69a2.53,2.53,0,0,1,2.53-2.53h20.22a2.53,2.53,0,0,1,2.53,2.53v20.22a2.53,2.53,0,0,1-2.53,2.53" style="fill:#0069ff"/><path d="M767,134.52H753.49a1.69,1.69,0,0,1-1.69-1.68V119.35a1.69,1.69,0,0,1,1.69-1.68H767a1.69,1.69,0,0,1,1.69,1.68v13.49a1.69,1.69,0,0,1-1.69,1.68" style="fill:#0069ff"/><path d="M763.6,109.24h-6.74a.83.83,0,0,1-.84-.84v-6.74a.83.83,0,0,1,.84-.84h6.74a.83.83,0,0,1,.84.84v6.74a.83.83,0,0,1-.84.84" style="fill:#0069ff"/><path d="M783.83,450.52H736.64a5.9,5.9,0,0,1-5.9-5.9V397.43a5.9,5.9,0,0,1,5.9-5.89h47.19a5.89,5.89,0,0,1,5.89,5.89v47.19a5.9,5.9,0,0,1-5.89,5.9" style="fill:#0069ff"/></g></g><g style="clip-path:url(#k)"><g style="clip-path:url(#k)"><path d="M861.45,362H821A5.05,5.05,0,0,1,816,357V316.54a5.06,5.06,0,0,1,5.06-5.06h40.44a5.06,5.06,0,0,1,5.06,5.06V357a5.05,5.05,0,0,1-5.06,5.05" style="fill:#0069ff"/><path d="M858.08,286.2h-33.7a4.21,4.21,0,0,1-4.22-4.21V248.28a4.22,4.22,0,0,1,4.22-4.21h33.7a4.22,4.22,0,0,1,4.22,4.21V282a4.21,4.21,0,0,1-4.22,4.21" style="fill:#0069ff"/><path d="M854.71,223h-27a3.37,3.37,0,0,1-3.37-3.37v-27a3.37,3.37,0,0,1,3.37-3.37h27a3.37,3.37,0,0,1,3.37,3.37v27a3.37,3.37,0,0,1-3.37,3.37" style="fill:#0069ff"/><path d="M851.34,172.44H831.12a2.53,2.53,0,0,1-2.53-2.53V149.69a2.53,2.53,0,0,1,2.53-2.53h20.22a2.53,2.53,0,0,1,2.53,2.53v20.22a2.53,2.53,0,0,1-2.53,2.53" style="fill:#0069ff"/><path d="M848,134.52H834.49a1.69,1.69,0,0,1-1.69-1.68V119.35a1.69,1.69,0,0,1,1.69-1.68H848a1.69,1.69,0,0,1,1.69,1.68v13.49a1.69,1.69,0,0,1-1.69,1.68" style="fill:#0069ff"/><path d="M844.6,109.24h-6.74a.83.83,0,0,1-.84-.84v-6.74a.83.83,0,0,1,.84-.84h6.74a.83.83,0,0,1,.84.84v6.74a.83.83,0,0,1-.84.84" style="fill:#0069ff"/><path d="M864.83,450.52H817.64a5.9,5.9,0,0,1-5.9-5.9V397.43a5.9,5.9,0,0,1,5.9-5.89h47.19a5.89,5.89,0,0,1,5.89,5.89v47.19a5.9,5.9,0,0,1-5.89,5.9" style="fill:#0069ff"/></g></g><g style="clip-path:url(#m)"><g style="clip-path:url(#m)"><path d="M942.45,362H902A5.05,5.05,0,0,1,897,357V316.54a5.06,5.06,0,0,1,5.06-5.06h40.44a5.06,5.06,0,0,1,5.06,5.06V357a5.05,5.05,0,0,1-5.06,5.05" style="fill:#0069ff"/><path d="M939.08,286.2h-33.7a4.21,4.21,0,0,1-4.22-4.21V248.28a4.22,4.22,0,0,1,4.22-4.21h33.7a4.22,4.22,0,0,1,4.22,4.21V282a4.21,4.21,0,0,1-4.22,4.21" style="fill:#0069ff"/><path d="M935.71,223h-27a3.37,3.37,0,0,1-3.37-3.37v-27a3.37,3.37,0,0,1,3.37-3.37h27a3.37,3.37,0,0,1,3.37,3.37v27a3.37,3.37,0,0,1-3.37,3.37" style="fill:#0069ff"/><path d="M932.34,172.44H912.12a2.53,2.53,0,0,1-2.53-2.53V149.69a2.53,2.53,0,0,1,2.53-2.53h20.22a2.53,2.53,0,0,1,2.53,2.53v20.22a2.53,2.53,0,0,1-2.53,2.53" style="fill:#0069ff"/><path d="M929,134.52H915.49a1.69,1.69,0,0,1-1.69-1.68V119.35a1.69,1.69,0,0,1,1.69-1.68H929a1.69,1.69,0,0,1,1.69,1.68v13.49a1.69,1.69,0,0,1-1.69,1.68" style="fill:#0069ff"/><path d="M925.6,109.24h-6.74a.83.83,0,0,1-.84-.84v-6.74a.83.83,0,0,1,.84-.84h6.74a.83.83,0,0,1,.84.84v6.74a.83.83,0,0,1-.84.84" style="fill:#0069ff"/><path d="M945.83,450.52H898.64a5.9,5.9,0,0,1-5.9-5.9V397.43a5.9,5.9,0,0,1,5.9-5.89h47.19a5.89,5.89,0,0,1,5.89,5.89v47.19a5.9,5.9,0,0,1-5.89,5.9" style="fill:#0069ff"/></g></g><g style="clip-path:url(#o)"><g style="clip-path:url(#o)"><path d="M1023.45,362H983A5.05,5.05,0,0,1,978,357V316.54a5.06,5.06,0,0,1,5.06-5.06h40.44a5.06,5.06,0,0,1,5.06,5.06V357a5.05,5.05,0,0,1-5.06,5.05" style="fill:#0069ff"/><path d="M1020.08,286.2h-33.7a4.21,4.21,0,0,1-4.22-4.21V248.28a4.22,4.22,0,0,1,4.22-4.21h33.7a4.22,4.22,0,0,1,4.22,4.21V282a4.21,4.21,0,0,1-4.22,4.21" style="fill:#0069ff"/><path d="M1016.71,223h-27a3.37,3.37,0,0,1-3.37-3.37v-27a3.37,3.37,0,0,1,3.37-3.37h27a3.37,3.37,0,0,1,3.37,3.37v27a3.37,3.37,0,0,1-3.37,3.37" style="fill:#0069ff"/><path d="M1013.34,172.44H993.12a2.53,2.53,0,0,1-2.53-2.53V149.69a2.53,2.53,0,0,1,2.53-2.53h20.22a2.53,2.53,0,0,1,2.53,2.53v20.22a2.53,2.53,0,0,1-2.53,2.53" style="fill:#0069ff"/><path d="M1010,134.52H996.49a1.69,1.69,0,0,1-1.69-1.68V119.35a1.69,1.69,0,0,1,1.69-1.68H1010a1.69,1.69,0,0,1,1.69,1.68v13.49a1.69,1.69,0,0,1-1.69,1.68" style="fill:#0069ff"/><path d="M1006.6,109.24h-6.74a.83.83,0,0,1-.84-.84v-6.74a.83.83,0,0,1,.84-.84h6.74a.83.83,0,0,1,.84.84v6.74a.83.83,0,0,1-.84.84" style="fill:#0069ff"/><path d="M1026.83,450.52H979.64a5.9,5.9,0,0,1-5.9-5.9V397.43a5.9,5.9,0,0,1,5.9-5.89h47.19a5.89,5.89,0,0,1,5.89,5.89v47.19a5.9,5.9,0,0,1-5.89,5.9" style="fill:#0069ff"/></g></g><g style="clip-path:url(#q)"><g style="clip-path:url(#q)"><path d="M1104.45,362H1064A5.05,5.05,0,0,1,1059,357V316.54a5.06,5.06,0,0,1,5.06-5.06h40.44a5.06,5.06,0,0,1,5.06,5.06V357a5.05,5.05,0,0,1-5.06,5.05" style="fill:#0069ff"/><path d="M1101.08,286.2h-33.7a4.21,4.21,0,0,1-4.22-4.21V248.28a4.22,4.22,0,0,1,4.22-4.21h33.7a4.22,4.22,0,0,1,4.22,4.21V282a4.21,4.21,0,0,1-4.22,4.21" style="fill:#0069ff"/><path d="M1097.71,223h-27a3.37,3.37,0,0,1-3.37-3.37v-27a3.37,3.37,0,0,1,3.37-3.37h27a3.37,3.37,0,0,1,3.37,3.37v27a3.37,3.37,0,0,1-3.37,3.37" style="fill:#0069ff"/><path d="M1094.34,172.44h-20.22a2.53,2.53,0,0,1-2.53-2.53V149.69a2.53,2.53,0,0,1,2.53-2.53h20.22a2.53,2.53,0,0,1,2.53,2.53v20.22a2.53,2.53,0,0,1-2.53,2.53" style="fill:#0069ff"/><path d="M1091,134.52h-13.48a1.69,1.69,0,0,1-1.69-1.68V119.35a1.69,1.69,0,0,1,1.69-1.68H1091a1.69,1.69,0,0,1,1.69,1.68v13.49a1.69,1.69,0,0,1-1.69,1.68" style="fill:#0069ff"/><path d="M1087.6,109.24h-6.74a.83.83,0,0,1-.84-.84v-6.74a.83.83,0,0,1,.84-.84h6.74a.83.83,0,0,1,.84.84v6.74a.83.83,0,0,1-.84.84" style="fill:#0069ff"/><path d="M1107.83,450.52h-47.19a5.9,5.9,0,0,1-5.9-5.9V397.43a5.9,5.9,0,0,1,5.9-5.89h47.19a5.89,5.89,0,0,1,5.89,5.89v47.19a5.9,5.9,0,0,1-5.89,5.9" style="fill:#0069ff"/></g></g><g style="clip-path:url(#s)"><g style="clip-path:url(#s)"><path d="M1185.45,362H1145A5.05,5.05,0,0,1,1140,357V316.54a5.06,5.06,0,0,1,5.06-5.06h40.44a5.06,5.06,0,0,1,5.06,5.06V357a5.05,5.05,0,0,1-5.06,5.05" style="fill:#0069ff"/><path d="M1182.08,286.2h-33.7a4.21,4.21,0,0,1-4.22-4.21V248.28a4.22,4.22,0,0,1,4.22-4.21h33.7a4.22,4.22,0,0,1,4.22,4.21V282a4.21,4.21,0,0,1-4.22,4.21" style="fill:#0069ff"/><path d="M1178.71,223h-27a3.37,3.37,0,0,1-3.37-3.37v-27a3.37,3.37,0,0,1,3.37-3.37h27a3.37,3.37,0,0,1,3.37,3.37v27a3.37,3.37,0,0,1-3.37,3.37" style="fill:#0069ff"/><path d="M1175.34,172.44h-20.22a2.53,2.53,0,0,1-2.53-2.53V149.69a2.53,2.53,0,0,1,2.53-2.53h20.22a2.53,2.53,0,0,1,2.53,2.53v20.22a2.53,2.53,0,0,1-2.53,2.53" style="fill:#0069ff"/><path d="M1172,134.52h-13.48a1.69,1.69,0,0,1-1.69-1.68V119.35a1.69,1.69,0,0,1,1.69-1.68H1172a1.69,1.69,0,0,1,1.69,1.68v13.49a1.69,1.69,0,0,1-1.69,1.68" style="fill:#0069ff"/><path d="M1168.6,109.24h-6.74a.83.83,0,0,1-.84-.84v-6.74a.83.83,0,0,1,.84-.84h6.74a.83.83,0,0,1,.84.84v6.74a.83.83,0,0,1-.84.84" style="fill:#0069ff"/><path d="M1188.83,450.52h-47.19a5.9,5.9,0,0,1-5.9-5.9V397.43a5.9,5.9,0,0,1,5.9-5.89h47.19a5.89,5.89,0,0,1,5.89,5.89v47.19a5.9,5.9,0,0,1-5.89,5.9" style="fill:#0069ff"/></g></g><g style="clip-path:url(#u)"><g style="clip-path:url(#u)"><path d="M1266.45,362H1226A5.05,5.05,0,0,1,1221,357V316.54a5.06,5.06,0,0,1,5.06-5.06h40.44a5.06,5.06,0,0,1,5.06,5.06V357a5.05,5.05,0,0,1-5.06,5.05" style="fill:#0069ff"/><path d="M1263.08,286.2h-33.7a4.21,4.21,0,0,1-4.22-4.21V248.28a4.22,4.22,0,0,1,4.22-4.21h33.7a4.22,4.22,0,0,1,4.22,4.21V282a4.21,4.21,0,0,1-4.22,4.21" style="fill:#0069ff"/><path d="M1259.71,223h-27a3.37,3.37,0,0,1-3.37-3.37v-27a3.37,3.37,0,0,1,3.37-3.37h27a3.37,3.37,0,0,1,3.37,3.37v27a3.37,3.37,0,0,1-3.37,3.37" style="fill:#0069ff"/><path d="M1256.34,172.44h-20.22a2.53,2.53,0,0,1-2.53-2.53V149.69a2.53,2.53,0,0,1,2.53-2.53h20.22a2.53,2.53,0,0,1,2.53,2.53v20.22a2.53,2.53,0,0,1-2.53,2.53" style="fill:#0069ff"/><path d="M1253,134.52h-13.48a1.69,1.69,0,0,1-1.69-1.68V119.35a1.69,1.69,0,0,1,1.69-1.68H1253a1.69,1.69,0,0,1,1.69,1.68v13.49a1.69,1.69,0,0,1-1.69,1.68" style="fill:#0069ff"/><path d="M1249.6,109.24h-6.74a.83.83,0,0,1-.84-.84v-6.74a.83.83,0,0,1,.84-.84h6.74a.83.83,0,0,1,.84.84v6.74a.83.83,0,0,1-.84.84" style="fill:#0069ff"/><path d="M1269.83,450.52h-47.19a5.9,5.9,0,0,1-5.9-5.9V397.43a5.9,5.9,0,0,1,5.9-5.89h47.19a5.89,5.89,0,0,1,5.89,5.89v47.19a5.9,5.9,0,0,1-5.89,5.9" style="fill:#0069ff"/></g></g><g style="clip-path:url(#w)"><g style="clip-path:url(#w)"><path d="M1347.45,362H1307A5.05,5.05,0,0,1,1302,357V316.54a5.06,5.06,0,0,1,5.06-5.06h40.44a5.06,5.06,0,0,1,5.06,5.06V357a5.05,5.05,0,0,1-5.06,5.05" style="fill:#0069ff"/><path d="M1344.08,286.2h-33.7a4.21,4.21,0,0,1-4.22-4.21V248.28a4.22,4.22,0,0,1,4.22-4.21h33.7a4.22,4.22,0,0,1,4.22,4.21V282a4.21,4.21,0,0,1-4.22,4.21" style="fill:#0069ff"/><path d="M1340.71,223h-27a3.37,3.37,0,0,1-3.37-3.37v-27a3.37,3.37,0,0,1,3.37-3.37h27a3.37,3.37,0,0,1,3.37,3.37v27a3.37,3.37,0,0,1-3.37,3.37" style="fill:#0069ff"/><path d="M1337.34,172.44h-20.22a2.53,2.53,0,0,1-2.53-2.53V149.69a2.53,2.53,0,0,1,2.53-2.53h20.22a2.53,2.53,0,0,1,2.53,2.53v20.22a2.53,2.53,0,0,1-2.53,2.53" style="fill:#0069ff"/><path d="M1334,134.52h-13.48a1.69,1.69,0,0,1-1.69-1.68V119.35a1.69,1.69,0,0,1,1.69-1.68H1334a1.69,1.69,0,0,1,1.69,1.68v13.49a1.69,1.69,0,0,1-1.69,1.68" style="fill:#0069ff"/><path d="M1330.6,109.24h-6.74a.83.83,0,0,1-.84-.84v-6.74a.83.83,0,0,1,.84-.84h6.74a.83.83,0,0,1,.84.84v6.74a.83.83,0,0,1-.84.84" style="fill:#0069ff"/><path d="M1350.83,450.52h-47.19a5.9,5.9,0,0,1-5.9-5.9V397.43a5.9,5.9,0,0,1,5.9-5.89h47.19a5.89,5.89,0,0,1,5.89,5.89v47.19a5.9,5.9,0,0,1-5.89,5.9" style="fill:#0069ff"/></g></g><g style="clip-path:url(#y)"><g style="clip-path:url(#y)"><path d="M1428.45,362H1388A5.05,5.05,0,0,1,1383,357V316.54a5.06,5.06,0,0,1,5.06-5.06h40.44a5.06,5.06,0,0,1,5.06,5.06V357a5.05,5.05,0,0,1-5.06,5.05" style="fill:#0069ff"/><path d="M1425.08,286.2h-33.7a4.21,4.21,0,0,1-4.22-4.21V248.28a4.22,4.22,0,0,1,4.22-4.21h33.7a4.22,4.22,0,0,1,4.22,4.21V282a4.21,4.21,0,0,1-4.22,4.21" style="fill:#0069ff"/><path d="M1421.71,223h-27a3.37,3.37,0,0,1-3.37-3.37v-27a3.37,3.37,0,0,1,3.37-3.37h27a3.37,3.37,0,0,1,3.37,3.37v27a3.37,3.37,0,0,1-3.37,3.37" style="fill:#0069ff"/><path d="M1418.34,172.44h-20.22a2.53,2.53,0,0,1-2.53-2.53V149.69a2.53,2.53,0,0,1,2.53-2.53h20.22a2.53,2.53,0,0,1,2.53,2.53v20.22a2.53,2.53,0,0,1-2.53,2.53" style="fill:#0069ff"/><path d="M1415,134.52h-13.48a1.69,1.69,0,0,1-1.69-1.68V119.35a1.69,1.69,0,0,1,1.69-1.68H1415a1.69,1.69,0,0,1,1.69,1.68v13.49a1.69,1.69,0,0,1-1.69,1.68" style="fill:#0069ff"/><path d="M1411.6,109.24h-6.74a.83.83,0,0,1-.84-.84v-6.74a.83.83,0,0,1,.84-.84h6.74a.83.83,0,0,1,.84.84v6.74a.83.83,0,0,1-.84.84" style="fill:#0069ff"/><path d="M1431.83,450.52h-47.19a5.9,5.9,0,0,1-5.9-5.9V397.43a5.9,5.9,0,0,1,5.9-5.89h47.19a5.89,5.89,0,0,1,5.89,5.89v47.19a5.9,5.9,0,0,1-5.89,5.9" style="fill:#0069ff"/></g></g><g style="clip-path:url(#aa)"><g style="clip-path:url(#aa)"><path d="M1509.45,362H1469A5.05,5.05,0,0,1,1464,357V316.54a5.06,5.06,0,0,1,5.06-5.06h40.44a5.06,5.06,0,0,1,5.06,5.06V357a5.05,5.05,0,0,1-5.06,5.05" style="fill:#0069ff"/><path d="M1506.08,286.2h-33.7a4.21,4.21,0,0,1-4.22-4.21V248.28a4.22,4.22,0,0,1,4.22-4.21h33.7a4.22,4.22,0,0,1,4.22,4.21V282a4.21,4.21,0,0,1-4.22,4.21" style="fill:#0069ff"/><path d="M1502.71,223h-27a3.37,3.37,0,0,1-3.37-3.37v-27a3.37,3.37,0,0,1,3.37-3.37h27a3.37,3.37,0,0,1,3.37,3.37v27a3.37,3.37,0,0,1-3.37,3.37" style="fill:#0069ff"/><path d="M1499.34,172.44h-20.22a2.53,2.53,0,0,1-2.53-2.53V149.69a2.53,2.53,0,0,1,2.53-2.53h20.22a2.53,2.53,0,0,1,2.53,2.53v20.22a2.53,2.53,0,0,1-2.53,2.53" style="fill:#0069ff"/><path d="M1496,134.52h-13.48a1.69,1.69,0,0,1-1.69-1.68V119.35a1.69,1.69,0,0,1,1.69-1.68H1496a1.69,1.69,0,0,1,1.69,1.68v13.49a1.69,1.69,0,0,1-1.69,1.68" style="fill:#0069ff"/><path d="M1492.6,109.24h-6.74a.83.83,0,0,1-.84-.84v-6.74a.83.83,0,0,1,.84-.84h6.74a.83.83,0,0,1,.84.84v6.74a.83.83,0,0,1-.84.84" style="fill:#0069ff"/><path d="M1512.83,450.52h-47.19a5.9,5.9,0,0,1-5.9-5.9V397.43a5.9,5.9,0,0,1,5.9-5.89h47.19a5.89,5.89,0,0,1,5.89,5.89v47.19a5.9,5.9,0,0,1-5.89,5.9" style="fill:#0069ff"/></g></g><g style="clip-path:url(#ac)"><g style="clip-path:url(#ac)"><path d="M1590.45,362H1550A5.05,5.05,0,0,1,1545,357V316.54a5.06,5.06,0,0,1,5.06-5.06h40.44a5.06,5.06,0,0,1,5.06,5.06V357a5.05,5.05,0,0,1-5.06,5.05" style="fill:#0069ff"/><path d="M1587.08,286.2h-33.7a4.21,4.21,0,0,1-4.22-4.21V248.28a4.22,4.22,0,0,1,4.22-4.21h33.7a4.22,4.22,0,0,1,4.22,4.21V282a4.21,4.21,0,0,1-4.22,4.21" style="fill:#0069ff"/><path d="M1583.71,223h-27a3.37,3.37,0,0,1-3.37-3.37v-27a3.37,3.37,0,0,1,3.37-3.37h27a3.37,3.37,0,0,1,3.37,3.37v27a3.37,3.37,0,0,1-3.37,3.37" style="fill:#0069ff"/><path d="M1580.34,172.44h-20.22a2.53,2.53,0,0,1-2.53-2.53V149.69a2.53,2.53,0,0,1,2.53-2.53h20.22a2.53,2.53,0,0,1,2.53,2.53v20.22a2.53,2.53,0,0,1-2.53,2.53" style="fill:#0069ff"/><path d="M1577,134.52h-13.48a1.69,1.69,0,0,1-1.69-1.68V119.35a1.69,1.69,0,0,1,1.69-1.68H1577a1.69,1.69,0,0,1,1.69,1.68v13.49a1.69,1.69,0,0,1-1.69,1.68" style="fill:#0069ff"/><path d="M1573.6,109.24h-6.74a.83.83,0,0,1-.84-.84v-6.74a.83.83,0,0,1,.84-.84h6.74a.83.83,0,0,1,.84.84v6.74a.83.83,0,0,1-.84.84" style="fill:#0069ff"/><path d="M1593.83,450.52h-47.19a5.9,5.9,0,0,1-5.9-5.9V397.43a5.9,5.9,0,0,1,5.9-5.89h47.19a5.89,5.89,0,0,1,5.89,5.89v47.19a5.9,5.9,0,0,1-5.89,5.9" style="fill:#0069ff"/></g></g><g style="clip-path:url(#ae)"><g style="clip-path:url(#ae)"><path d="M1671.45,362H1631A5.05,5.05,0,0,1,1626,357V316.54a5.06,5.06,0,0,1,5.06-5.06h40.44a5.06,5.06,0,0,1,5.06,5.06V357a5.05,5.05,0,0,1-5.06,5.05" style="fill:#0069ff"/><path d="M1668.08,286.2h-33.7a4.21,4.21,0,0,1-4.22-4.21V248.28a4.22,4.22,0,0,1,4.22-4.21h33.7a4.22,4.22,0,0,1,4.22,4.21V282a4.21,4.21,0,0,1-4.22,4.21" style="fill:#0069ff"/><path d="M1664.71,223h-27a3.37,3.37,0,0,1-3.37-3.37v-27a3.37,3.37,0,0,1,3.37-3.37h27a3.37,3.37,0,0,1,3.37,3.37v27a3.37,3.37,0,0,1-3.37,3.37" style="fill:#0069ff"/><path d="M1661.34,172.44h-20.22a2.53,2.53,0,0,1-2.53-2.53V149.69a2.53,2.53,0,0,1,2.53-2.53h20.22a2.53,2.53,0,0,1,2.53,2.53v20.22a2.53,2.53,0,0,1-2.53,2.53" style="fill:#0069ff"/><path d="M1658,134.52h-13.48a1.69,1.69,0,0,1-1.69-1.68V119.35a1.69,1.69,0,0,1,1.69-1.68H1658a1.69,1.69,0,0,1,1.69,1.68v13.49a1.69,1.69,0,0,1-1.69,1.68" style="fill:#0069ff"/><path d="M1654.6,109.24h-6.74a.83.83,0,0,1-.84-.84v-6.74a.83.83,0,0,1,.84-.84h6.74a.83.83,0,0,1,.84.84v6.74a.83.83,0,0,1-.84.84" style="fill:#0069ff"/><path d="M1674.83,450.52h-47.19a5.9,5.9,0,0,1-5.9-5.9V397.43a5.9,5.9,0,0,1,5.9-5.89h47.19a5.89,5.89,0,0,1,5.89,5.89v47.19a5.9,5.9,0,0,1-5.89,5.9" style="fill:#0069ff"/></g></g><g style="clip-path:url(#ag)"><g style="clip-path:url(#ag)"><path d="M1752.45,362H1712A5.05,5.05,0,0,1,1707,357V316.54a5.06,5.06,0,0,1,5.06-5.06h40.44a5.06,5.06,0,0,1,5.06,5.06V357a5.05,5.05,0,0,1-5.06,5.05" style="fill:#0069ff"/><path d="M1749.08,286.2h-33.7a4.21,4.21,0,0,1-4.22-4.21V248.28a4.22,4.22,0,0,1,4.22-4.21h33.7a4.22,4.22,0,0,1,4.22,4.21V282a4.21,4.21,0,0,1-4.22,4.21" style="fill:#0069ff"/><path d="M1745.71,223h-27a3.37,3.37,0,0,1-3.37-3.37v-27a3.37,3.37,0,0,1,3.37-3.37h27a3.37,3.37,0,0,1,3.37,3.37v27a3.37,3.37,0,0,1-3.37,3.37" style="fill:#0069ff"/><path d="M1742.34,172.44h-20.22a2.53,2.53,0,0,1-2.53-2.53V149.69a2.53,2.53,0,0,1,2.53-2.53h20.22a2.53,2.53,0,0,1,2.53,2.53v20.22a2.53,2.53,0,0,1-2.53,2.53" style="fill:#0069ff"/><path d="M1739,134.52h-13.48a1.69,1.69,0,0,1-1.69-1.68V119.35a1.69,1.69,0,0,1,1.69-1.68H1739a1.69,1.69,0,0,1,1.69,1.68v13.49a1.69,1.69,0,0,1-1.69,1.68" style="fill:#0069ff"/><path d="M1735.6,109.24h-6.74a.83.83,0,0,1-.84-.84v-6.74a.83.83,0,0,1,.84-.84h6.74a.83.83,0,0,1,.84.84v6.74a.83.83,0,0,1-.84.84" style="fill:#0069ff"/><path d="M1755.83,450.52h-47.19a5.9,5.9,0,0,1-5.9-5.9V397.43a5.9,5.9,0,0,1,5.9-5.89h47.19a5.89,5.89,0,0,1,5.89,5.89v47.19a5.9,5.9,0,0,1-5.89,5.9" style="fill:#0069ff"/></g></g><g style="clip-path:url(#ai)"><g style="clip-path:url(#ai)"><path d="M1833.45,362H1793A5.05,5.05,0,0,1,1788,357V316.54a5.06,5.06,0,0,1,5.06-5.06h40.44a5.06,5.06,0,0,1,5.06,5.06V357a5.05,5.05,0,0,1-5.06,5.05" style="fill:#0069ff"/><path d="M1830.08,286.2h-33.7a4.21,4.21,0,0,1-4.22-4.21V248.28a4.22,4.22,0,0,1,4.22-4.21h33.7a4.22,4.22,0,0,1,4.22,4.21V282a4.21,4.21,0,0,1-4.22,4.21" style="fill:#0069ff"/><path d="M1826.71,223h-27a3.37,3.37,0,0,1-3.37-3.37v-27a3.37,3.37,0,0,1,3.37-3.37h27a3.37,3.37,0,0,1,3.37,3.37v27a3.37,3.37,0,0,1-3.37,3.37" style="fill:#0069ff"/><path d="M1823.34,172.44h-20.22a2.53,2.53,0,0,1-2.53-2.53V149.69a2.53,2.53,0,0,1,2.53-2.53h20.22a2.53,2.53,0,0,1,2.53,2.53v20.22a2.53,2.53,0,0,1-2.53,2.53" style="fill:#0069ff"/><path d="M1820,134.52h-13.48a1.69,1.69,0,0,1-1.69-1.68V119.35a1.69,1.69,0,0,1,1.69-1.68H1820a1.69,1.69,0,0,1,1.69,1.68v13.49a1.69,1.69,0,0,1-1.69,1.68" style="fill:#0069ff"/><path d="M1816.6,109.24h-6.74a.83.83,0,0,1-.84-.84v-6.74a.83.83,0,0,1,.84-.84h6.74a.83.83,0,0,1,.84.84v6.74a.83.83,0,0,1-.84.84" style="fill:#0069ff"/><path d="M1836.83,450.52h-47.19a5.9,5.9,0,0,1-5.9-5.9V397.43a5.9,5.9,0,0,1,5.9-5.89h47.19a5.89,5.89,0,0,1,5.89,5.89v47.19a5.9,5.9,0,0,1-5.89,5.9" style="fill:#0069ff"/></g></g><g style="clip-path:url(#ak)"><g style="clip-path:url(#ak)"><path d="M1914.45,362H1874A5.05,5.05,0,0,1,1869,357V316.54a5.06,5.06,0,0,1,5.06-5.06h40.44a5.06,5.06,0,0,1,5.06,5.06V357a5.05,5.05,0,0,1-5.06,5.05" style="fill:#0069ff"/><path d="M1911.08,286.2h-33.7a4.21,4.21,0,0,1-4.22-4.21V248.28a4.22,4.22,0,0,1,4.22-4.21h33.7a4.22,4.22,0,0,1,4.22,4.21V282a4.21,4.21,0,0,1-4.22,4.21" style="fill:#0069ff"/><path d="M1907.71,223h-27a3.37,3.37,0,0,1-3.37-3.37v-27a3.37,3.37,0,0,1,3.37-3.37h27a3.37,3.37,0,0,1,3.37,3.37v27a3.37,3.37,0,0,1-3.37,3.37" style="fill:#0069ff"/><path d="M1904.34,172.44h-20.22a2.53,2.53,0,0,1-2.53-2.53V149.69a2.53,2.53,0,0,1,2.53-2.53h20.22a2.53,2.53,0,0,1,2.53,2.53v20.22a2.53,2.53,0,0,1-2.53,2.53" style="fill:#0069ff"/><path d="M1901,134.52h-13.48a1.69,1.69,0,0,1-1.69-1.68V119.35a1.69,1.69,0,0,1,1.69-1.68H1901a1.69,1.69,0,0,1,1.69,1.68v13.49a1.69,1.69,0,0,1-1.69,1.68" style="fill:#0069ff"/><path d="M1897.6,109.24h-6.74a.83.83,0,0,1-.84-.84v-6.74a.83.83,0,0,1,.84-.84h6.74a.83.83,0,0,1,.84.84v6.74a.83.83,0,0,1-.84.84" style="fill:#0069ff"/><path d="M1917.83,450.52h-47.19a5.9,5.9,0,0,1-5.9-5.9V397.43a5.9,5.9,0,0,1,5.9-5.89h47.19a5.89,5.89,0,0,1,5.89,5.89v47.19a5.9,5.9,0,0,1-5.89,5.9" style="fill:#0069ff"/></g></g><g style="clip-path:url(#am)"><g style="clip-path:url(#am)"><path d="M1995.45,362H1955A5.05,5.05,0,0,1,1950,357V316.54a5.06,5.06,0,0,1,5.06-5.06h40.44a5.06,5.06,0,0,1,5.06,5.06V357a5.05,5.05,0,0,1-5.06,5.05" style="fill:#0069ff"/><path d="M1992.08,286.2h-33.7a4.21,4.21,0,0,1-4.22-4.21V248.28a4.22,4.22,0,0,1,4.22-4.21h33.7a4.22,4.22,0,0,1,4.22,4.21V282a4.21,4.21,0,0,1-4.22,4.21" style="fill:#0069ff"/><path d="M1988.71,223h-27a3.37,3.37,0,0,1-3.37-3.37v-27a3.37,3.37,0,0,1,3.37-3.37h27a3.37,3.37,0,0,1,3.37,3.37v27a3.37,3.37,0,0,1-3.37,3.37" style="fill:#0069ff"/><path d="M1985.34,172.44h-20.22a2.53,2.53,0,0,1-2.53-2.53V149.69a2.53,2.53,0,0,1,2.53-2.53h20.22a2.53,2.53,0,0,1,2.53,2.53v20.22a2.53,2.53,0,0,1-2.53,2.53" style="fill:#0069ff"/><path d="M1982,134.52h-13.48a1.69,1.69,0,0,1-1.69-1.68V119.35a1.69,1.69,0,0,1,1.69-1.68H1982a1.69,1.69,0,0,1,1.69,1.68v13.49a1.69,1.69,0,0,1-1.69,1.68" style="fill:#0069ff"/><path d="M1978.6,109.24h-6.74a.83.83,0,0,1-.84-.84v-6.74a.83.83,0,0,1,.84-.84h6.74a.83.83,0,0,1,.84.84v6.74a.83.83,0,0,1-.84.84" style="fill:#0069ff"/><path d="M1998.83,450.52h-47.19a5.9,5.9,0,0,1-5.9-5.9V397.43a5.9,5.9,0,0,1,5.9-5.89h47.19a5.89,5.89,0,0,1,5.89,5.89v47.19a5.9,5.9,0,0,1-5.89,5.9" style="fill:#0069ff"/></g></g><g style="clip-path:url(#ao)"><g style="clip-path:url(#ao)"><path d="M2076.45,362H2036A5.05,5.05,0,0,1,2031,357V316.54a5.06,5.06,0,0,1,5.06-5.06h40.44a5.06,5.06,0,0,1,5.06,5.06V357a5.05,5.05,0,0,1-5.06,5.05" style="fill:#0069ff"/><path d="M2073.08,286.2h-33.7a4.21,4.21,0,0,1-4.22-4.21V248.28a4.22,4.22,0,0,1,4.22-4.21h33.7a4.22,4.22,0,0,1,4.22,4.21V282a4.21,4.21,0,0,1-4.22,4.21" style="fill:#0069ff"/><path d="M2069.71,223h-27a3.37,3.37,0,0,1-3.37-3.37v-27a3.37,3.37,0,0,1,3.37-3.37h27a3.37,3.37,0,0,1,3.37,3.37v27a3.37,3.37,0,0,1-3.37,3.37" style="fill:#0069ff"/><path d="M2066.34,172.44h-20.22a2.53,2.53,0,0,1-2.53-2.53V149.69a2.53,2.53,0,0,1,2.53-2.53h20.22a2.53,2.53,0,0,1,2.53,2.53v20.22a2.53,2.53,0,0,1-2.53,2.53" style="fill:#0069ff"/><path d="M2063,134.52h-13.48a1.69,1.69,0,0,1-1.69-1.68V119.35a1.69,1.69,0,0,1,1.69-1.68H2063a1.69,1.69,0,0,1,1.69,1.68v13.49a1.69,1.69,0,0,1-1.69,1.68" style="fill:#0069ff"/><path d="M2059.6,109.24h-6.74a.83.83,0,0,1-.84-.84v-6.74a.83.83,0,0,1,.84-.84h6.74a.83.83,0,0,1,.84.84v6.74a.83.83,0,0,1-.84.84" style="fill:#0069ff"/><path d="M2079.83,450.52h-47.19a5.9,5.9,0,0,1-5.9-5.9V397.43a5.9,5.9,0,0,1,5.9-5.89h47.19a5.89,5.89,0,0,1,5.89,5.89v47.19a5.9,5.9,0,0,1-5.89,5.9" style="fill:#0069ff"/></g></g><g style="clip-path:url(#aq)"><g style="clip-path:url(#aq)"><path d="M375.45,362H335A5.05,5.05,0,0,1,330,357V316.54a5.06,5.06,0,0,1,5.06-5.06h40.44a5.06,5.06,0,0,1,5.06,5.06V357a5.05,5.05,0,0,1-5.06,5.05" style="fill:#0069ff"/><path d="M372.08,286.2h-33.7a4.21,4.21,0,0,1-4.22-4.21V248.28a4.22,4.22,0,0,1,4.22-4.21h33.7a4.22,4.22,0,0,1,4.22,4.21V282a4.21,4.21,0,0,1-4.22,4.21" style="fill:#0069ff"/><path d="M368.71,223h-27a3.37,3.37,0,0,1-3.37-3.37v-27a3.37,3.37,0,0,1,3.37-3.37h27a3.37,3.37,0,0,1,3.37,3.37v27a3.37,3.37,0,0,1-3.37,3.37" style="fill:#0069ff"/><path d="M365.34,172.44H345.12a2.53,2.53,0,0,1-2.53-2.53V149.69a2.53,2.53,0,0,1,2.53-2.53h20.22a2.53,2.53,0,0,1,2.53,2.53v20.22a2.53,2.53,0,0,1-2.53,2.53" style="fill:#0069ff"/><path d="M362,134.52H348.49a1.69,1.69,0,0,1-1.69-1.68V119.35a1.69,1.69,0,0,1,1.69-1.68H362a1.69,1.69,0,0,1,1.69,1.68v13.49a1.69,1.69,0,0,1-1.69,1.68" style="fill:#0069ff"/><path d="M358.6,109.24h-6.74a.83.83,0,0,1-.84-.84v-6.74a.83.83,0,0,1,.84-.84h6.74a.83.83,0,0,1,.84.84v6.74a.83.83,0,0,1-.84.84" style="fill:#0069ff"/><path d="M378.83,450.52H331.64a5.9,5.9,0,0,1-5.9-5.9V397.43a5.9,5.9,0,0,1,5.9-5.89h47.19a5.89,5.89,0,0,1,5.89,5.89v47.19a5.9,5.9,0,0,1-5.89,5.9" style="fill:#0069ff"/></g></g><g style="clip-path:url(#as)"><g style="clip-path:url(#as)"><path d="M294.45,362H254A5.05,5.05,0,0,1,249,357V316.54a5.06,5.06,0,0,1,5.06-5.06h40.44a5.06,5.06,0,0,1,5.06,5.06V357a5.05,5.05,0,0,1-5.06,5.05" style="fill:#0069ff"/><path d="M291.08,286.2h-33.7a4.21,4.21,0,0,1-4.22-4.21V248.28a4.22,4.22,0,0,1,4.22-4.21h33.7a4.22,4.22,0,0,1,4.22,4.21V282a4.21,4.21,0,0,1-4.22,4.21" style="fill:#0069ff"/><path d="M287.71,223h-27a3.37,3.37,0,0,1-3.37-3.37v-27a3.37,3.37,0,0,1,3.37-3.37h27a3.37,3.37,0,0,1,3.37,3.37v27a3.37,3.37,0,0,1-3.37,3.37" style="fill:#0069ff"/><path d="M284.34,172.44H264.12a2.53,2.53,0,0,1-2.53-2.53V149.69a2.53,2.53,0,0,1,2.53-2.53h20.22a2.53,2.53,0,0,1,2.53,2.53v20.22a2.53,2.53,0,0,1-2.53,2.53" style="fill:#0069ff"/><path d="M281,134.52H267.49a1.69,1.69,0,0,1-1.69-1.68V119.35a1.69,1.69,0,0,1,1.69-1.68H281a1.69,1.69,0,0,1,1.69,1.68v13.49a1.69,1.69,0,0,1-1.69,1.68" style="fill:#0069ff"/><path d="M277.6,109.24h-6.74a.83.83,0,0,1-.84-.84v-6.74a.83.83,0,0,1,.84-.84h6.74a.83.83,0,0,1,.84.84v6.74a.83.83,0,0,1-.84.84" style="fill:#0069ff"/><path d="M297.83,450.52H250.64a5.9,5.9,0,0,1-5.9-5.9V397.43a5.9,5.9,0,0,1,5.9-5.89h47.19a5.89,5.89,0,0,1,5.89,5.89v47.19a5.9,5.9,0,0,1-5.89,5.9" style="fill:#0069ff"/></g></g><g style="clip-path:url(#au)"><g style="clip-path:url(#au)"><path d="M213.45,362H173A5.05,5.05,0,0,1,168,357V316.54a5.06,5.06,0,0,1,5.06-5.06h40.44a5.06,5.06,0,0,1,5.06,5.06V357a5.05,5.05,0,0,1-5.06,5.05" style="fill:#0069ff"/><path d="M210.08,286.2h-33.7a4.21,4.21,0,0,1-4.22-4.21V248.28a4.22,4.22,0,0,1,4.22-4.21h33.7a4.22,4.22,0,0,1,4.22,4.21V282a4.21,4.21,0,0,1-4.22,4.21" style="fill:#0069ff"/><path d="M206.71,223h-27a3.37,3.37,0,0,1-3.37-3.37v-27a3.37,3.37,0,0,1,3.37-3.37h27a3.37,3.37,0,0,1,3.37,3.37v27a3.37,3.37,0,0,1-3.37,3.37" style="fill:#0069ff"/><path d="M203.34,172.44H183.12a2.53,2.53,0,0,1-2.53-2.53V149.69a2.53,2.53,0,0,1,2.53-2.53h20.22a2.53,2.53,0,0,1,2.53,2.53v20.22a2.53,2.53,0,0,1-2.53,2.53" style="fill:#0069ff"/><path d="M200,134.52H186.49a1.69,1.69,0,0,1-1.69-1.68V119.35a1.69,1.69,0,0,1,1.69-1.68H200a1.69,1.69,0,0,1,1.69,1.68v13.49a1.69,1.69,0,0,1-1.69,1.68" style="fill:#0069ff"/><path d="M196.6,109.24h-6.74a.83.83,0,0,1-.84-.84v-6.74a.83.83,0,0,1,.84-.84h6.74a.83.83,0,0,1,.84.84v6.74a.83.83,0,0,1-.84.84" style="fill:#0069ff"/><path d="M216.83,450.52H169.64a5.9,5.9,0,0,1-5.9-5.9V397.43a5.9,5.9,0,0,1,5.9-5.89h47.19a5.89,5.89,0,0,1,5.89,5.89v47.19a5.9,5.9,0,0,1-5.89,5.9" style="fill:#0069ff"/></g></g><g style="clip-path:url(#aw)"><g style="clip-path:url(#aw)"><path d="M132.45,362H92A5.05,5.05,0,0,1,87,357V316.54A5.06,5.06,0,0,1,92,311.48h40.44a5.06,5.06,0,0,1,5.06,5.06V357a5.05,5.05,0,0,1-5.06,5.05" style="fill:#0069ff"/><path d="M129.08,286.2H95.38A4.21,4.21,0,0,1,91.16,282V248.28a4.22,4.22,0,0,1,4.22-4.21h33.7a4.22,4.22,0,0,1,4.22,4.21V282a4.21,4.21,0,0,1-4.22,4.21" style="fill:#0069ff"/><path d="M125.71,223h-27a3.37,3.37,0,0,1-3.37-3.37v-27a3.37,3.37,0,0,1,3.37-3.37h27a3.37,3.37,0,0,1,3.37,3.37v27a3.37,3.37,0,0,1-3.37,3.37" style="fill:#0069ff"/><path d="M122.34,172.44H102.12a2.53,2.53,0,0,1-2.53-2.53V149.69a2.53,2.53,0,0,1,2.53-2.53h20.22a2.53,2.53,0,0,1,2.53,2.53v20.22a2.53,2.53,0,0,1-2.53,2.53" style="fill:#0069ff"/><path d="M119,134.52H105.49a1.69,1.69,0,0,1-1.69-1.68V119.35a1.69,1.69,0,0,1,1.69-1.68H119a1.69,1.69,0,0,1,1.69,1.68v13.49a1.69,1.69,0,0,1-1.69,1.68" style="fill:#0069ff"/><path d="M115.6,109.24h-6.74a.83.83,0,0,1-.84-.84v-6.74a.83.83,0,0,1,.84-.84h6.74a.83.83,0,0,1,.84.84v6.74a.83.83,0,0,1-.84.84" style="fill:#0069ff"/><path d="M135.83,450.52H88.64a5.9,5.9,0,0,1-5.9-5.9V397.43a5.9,5.9,0,0,1,5.9-5.89h47.19a5.89,5.89,0,0,1,5.89,5.89v47.19a5.9,5.9,0,0,1-5.89,5.9" style="fill:#0069ff"/></g></g><g style="clip-path:url(#ay)"><g style="clip-path:url(#ay)"><path d="M51.45,362H11A5.05,5.05,0,0,1,6,357V316.54A5.06,5.06,0,0,1,11,311.48H51.45a5.06,5.06,0,0,1,5.06,5.06V357A5.05,5.05,0,0,1,51.45,362" style="fill:#0069ff"/><path d="M48.08,286.2H14.38A4.21,4.21,0,0,1,10.16,282V248.28a4.22,4.22,0,0,1,4.22-4.21h33.7a4.22,4.22,0,0,1,4.22,4.21V282a4.21,4.21,0,0,1-4.22,4.21" style="fill:#0069ff"/><path d="M44.71,223h-27a3.37,3.37,0,0,1-3.37-3.37v-27a3.37,3.37,0,0,1,3.37-3.37h27a3.37,3.37,0,0,1,3.37,3.37v27A3.37,3.37,0,0,1,44.71,223" style="fill:#0069ff"/><path d="M41.34,172.44H21.12a2.53,2.53,0,0,1-2.53-2.53V149.69a2.53,2.53,0,0,1,2.53-2.53H41.34a2.53,2.53,0,0,1,2.53,2.53v20.22a2.53,2.53,0,0,1-2.53,2.53" style="fill:#0069ff"/><path d="M38,134.52H24.49a1.69,1.69,0,0,1-1.69-1.68V119.35a1.69,1.69,0,0,1,1.69-1.68H38a1.69,1.69,0,0,1,1.69,1.68v13.49A1.69,1.69,0,0,1,38,134.52" style="fill:#0069ff"/><path d="M34.6,109.24H27.86a.83.83,0,0,1-.84-.84v-6.74a.83.83,0,0,1,.84-.84H34.6a.83.83,0,0,1,.84.84v6.74a.83.83,0,0,1-.84.84" style="fill:#0069ff"/><path d="M54.83,450.52H7.64a5.9,5.9,0,0,1-5.9-5.9V397.43a5.9,5.9,0,0,1,5.9-5.89H54.83a5.89,5.89,0,0,1,5.89,5.89v47.19a5.9,5.9,0,0,1-5.89,5.9" style="fill:#0069ff"/></g></g></svg>