<svg xmlns="http://www.w3.org/2000/svg" viewBox="0 0 843.96 747.08"><title>screen</title><path d="M362.94,685.5a1.5,1.5,0,0,1-1.5-1.5V492a1.5,1.5,0,0,1,1.5-1.5h118a1.5,1.5,0,0,1,1.5,1.5V684a1.5,1.5,0,0,1-1.5,1.5Zm58.5-181.22c-18.47,0-33.5,15.45-33.5,34.44v30.8c0,19,15,34.43,33.5,34.43s33.5-15.44,33.5-34.43v-30.8C454.94,519.73,439.91,504.28,421.44,504.28Z" style="fill:#d3d8e5"/><path d="M480.94,492V684h-118V492h118m-59.5,113.45c19.33,0,35-16.08,35-35.93v-30.8c0-19.85-15.67-35.94-35-35.94s-35,16.09-35,35.94v30.8c0,19.85,15.67,35.93,35,35.93M480.94,489h-118a3,3,0,0,0-3,3V684a3,3,0,0,0,3,3h118a3,3,0,0,0,3-3V492a3,3,0,0,0-3-3Zm-59.5,113.45c-17.65,0-32-14.77-32-32.93v-30.8c0-18.16,14.35-32.94,32-32.94s32,14.78,32,32.94v30.8c0,18.16-14.36,32.93-32,32.93Z" style="fill:#1a1c1f"/><rect x="180.44" y="682.5" width="483" height="63" rx="5.5" ry="5.5" style="fill:#e6ebf4"/><path d="M657.94,684a4,4,0,0,1,4,4v52a4,4,0,0,1-4,4h-472a4,4,0,0,1-4-4V688a4,4,0,0,1,4-4h472m0-3h-472a7,7,0,0,0-7,7v52a7,7,0,0,0,7,7h472a7,7,0,0,0,7-7V688a7,7,0,0,0-7-7Z" style="fill:#1a1c1f"/><rect x="1.94" y="2" width="840" height="490" rx="4" ry="4" style="fill:#e6ebf4"/><rect x="20.44" y="20.5" width="803" height="453" rx="1.5" ry="1.5" style="fill:#0069ff"/><path d="M821.94,22V472h-800V22h800m0-3h-800a3,3,0,0,0-3,3V472a3,3,0,0,0,3,3h800a3,3,0,0,0,3-3V22a3,3,0,0,0-3-3Z" style="fill:#1a1c1f"/><g style="opacity:0.9500000000000001"><rect x="20.44" y="20.5" width="803" height="453" rx="1.5" ry="1.5"/><path d="M821.94,22V472h-800V22h800m0-3h-800a3,3,0,0,0-3,3V472a3,3,0,0,0,3,3h800a3,3,0,0,0,3-3V22a3,3,0,0,0-3-3Z" style="fill:#1a1c1f"/></g><path d="M684.94,2H5.94a4,4,0,0,0-4,4V488a4,4,0,0,0,4,4h832a4,4,0,0,0,4-4V6a4,4,0,0,0-4-4h-46" style="fill:none;stroke:#1a1c1f;stroke-linecap:round;stroke-linejoin:round;stroke-width:3px"/><line x1="729.44" y1="1.5" x2="758.44" y2="1.5" style="fill:none;stroke:#1a1c1f;stroke-linecap:round;stroke-linejoin:round;stroke-width:3px"/></svg>